HIERARCHY
ROOT Hips
{
	OFFSET 0.000000 97.167313 0.000000
	CHANNELS 6 Xposition Yposition Zposition Xrotation Yrotation Zrotation
	JOINT Spine
	{
		OFFSET 0.000000 13.784798 0.064400
		CHANNELS 3 Xrotation Yrotation Zrotation
		JOINT Spine1
		{
			OFFSET 0.000000 12.037903 0.404700
			CHANNELS 3 Xrotation Yrotation Zrotation
			JOINT Spine2
			{
				OFFSET 0.000000 17.795601 0.420200
				CHANNELS 3 Xrotation Yrotation Zrotation
				JOINT Neck
				{
					OFFSET 0.000000 39.131302 11.954600
					CHANNELS 3 Xrotation Yrotation Zrotation
					JOINT Head
					{
						OFFSET 0.000000 14.456192 15.627699
						CHANNELS 3 Xrotation Yrotation Zrotation
						JOINT HeadTop_End
						{
							OFFSET 0.000000 15.703506 7.603401
							CHANNELS 3 Xrotation Yrotation Zrotation
							End Site
							{
								OFFSET 0.000000 17.447403 0.000000
							}
						}
					}
				}
				JOINT LeftShoulder
				{
					OFFSET 17.399500 24.608795 1.168800
					CHANNELS 3 Xrotation Yrotation Zrotation
					JOINT LeftArm
					{
						OFFSET 18.980635 5.765305 1.818600
						CHANNELS 3 Xrotation Yrotation Zrotation
						JOINT LeftForeArm
						{
							OFFSET 49.290169 0.000000 0.000000
							CHANNELS 3 Xrotation Yrotation Zrotation
							JOINT LeftHand
							{
								OFFSET 31.562012 0.000000 0.000000
								CHANNELS 3 Xrotation Yrotation Zrotation
								JOINT LeftHandThumb1
								{
									OFFSET 6.133995 -4.388519 7.076070
									CHANNELS 3 Xrotation Yrotation Zrotation
									JOINT LeftHandThumb2
									{
										OFFSET 6.037666 -3.485840 3.485847
										CHANNELS 3 Xrotation Yrotation Zrotation
										JOINT LeftHandThumb3
										{
											OFFSET 6.496506 -3.750763 3.750761
											CHANNELS 3 Xrotation Yrotation Zrotation
											JOINT LeftHandThumb4
											{
												OFFSET 5.616882 -3.242905 3.242910
												CHANNELS 3 Xrotation Yrotation Zrotation
												End Site
												{
													OFFSET -1.254608 7.132141 0.375429
												}
											}
										}
									}
								}
								JOINT LeftHandPinky1
								{
									OFFSET 18.920792 -0.453171 -11.426712
									CHANNELS 3 Xrotation Yrotation Zrotation
									JOINT LeftHandPinky2
									{
										OFFSET 4.919586 0.000000 0.000000
										CHANNELS 3 Xrotation Yrotation Zrotation
										JOINT LeftHandPinky3
										{
											OFFSET 5.233047 0.000000 0.000000
											CHANNELS 3 Xrotation Yrotation Zrotation
											JOINT LeftHandPinky4
											{
												OFFSET 5.571716 0.000000 0.000000
												CHANNELS 3 Xrotation Yrotation Zrotation
												End Site
												{
													OFFSET -3.459808 4.342407 -0.466164
												}
											}
										}
									}
								}
								JOINT LeftHandRing1
								{
									OFFSET 22.726120 -0.094986 -6.500475
									CHANNELS 3 Xrotation Yrotation Zrotation
									JOINT LeftHandRing2
									{
										OFFSET 6.408615 0.000000 0.000000
										CHANNELS 3 Xrotation Yrotation Zrotation
										JOINT LeftHandRing3
										{
											OFFSET 6.150223 0.000000 0.000000
											CHANNELS 3 Xrotation Yrotation Zrotation
											JOINT LeftHandRing4
											{
												OFFSET 6.145386 0.000000 0.000000
												CHANNELS 3 Xrotation Yrotation Zrotation
												End Site
												{
													OFFSET -3.671402 4.923981 -0.202372
												}
											}
										}
									}
								}
								JOINT LeftHandMiddle1
								{
									OFFSET 23.373947 0.000000 0.000001
									CHANNELS 3 Xrotation Yrotation Zrotation
									JOINT LeftHandMiddle2
									{
										OFFSET 6.996567 0.000000 0.000000
										CHANNELS 3 Xrotation Yrotation Zrotation
										JOINT LeftHandMiddle3
										{
											OFFSET 7.015945 0.000000 0.000000
											CHANNELS 3 Xrotation Yrotation Zrotation
											JOINT LeftHandMiddle4
											{
												OFFSET 7.721573 0.000000 0.000000
												CHANNELS 3 Xrotation Yrotation Zrotation
												End Site
												{
													OFFSET -4.651108 6.158463 0.251582
												}
											}
										}
									}
								}
								JOINT LeftHandIndex1
								{
									OFFSET 21.310577 -0.490082 6.209344
									CHANNELS 3 Xrotation Yrotation Zrotation
									JOINT LeftHandIndex2
									{
										OFFSET 7.536453 0.000000 0.000000
										CHANNELS 3 Xrotation Yrotation Zrotation
										JOINT LeftHandIndex3
										{
											OFFSET 7.512344 0.000000 0.000000
											CHANNELS 3 Xrotation Yrotation Zrotation
											JOINT LeftHandIndex4
											{
												OFFSET 10.212402 0.000000 0.000001
												CHANNELS 3 Xrotation Yrotation Zrotation
												End Site
												{
													OFFSET -5.180801 8.690506 1.388433
												}
											}
										}
									}
								}
							}
						}
					}
				}
				JOINT RightShoulder
				{
					OFFSET -17.399500 24.608795 1.168800
					CHANNELS 3 Xrotation Yrotation Zrotation
					JOINT RightArm
					{
						OFFSET -18.980635 5.765305 1.818600
						CHANNELS 3 Xrotation Yrotation Zrotation
						JOINT RightForeArm
						{
							OFFSET -49.290169 0.000000 0.000000
							CHANNELS 3 Xrotation Yrotation Zrotation
							JOINT RightHand
							{
								OFFSET -31.562012 0.000000 0.000000
								CHANNELS 3 Xrotation Yrotation Zrotation
								JOINT RightHandThumb1
								{
									OFFSET -6.133995 -4.388519 7.076070
									CHANNELS 3 Xrotation Yrotation Zrotation
									JOINT RightHandThumb2
									{
										OFFSET -6.037666 -3.485840 3.485847
										CHANNELS 3 Xrotation Yrotation Zrotation
										JOINT RightHandThumb3
										{
											OFFSET -6.496506 -3.750763 3.750761
											CHANNELS 3 Xrotation Yrotation Zrotation
											JOINT RightHandThumb4
											{
												OFFSET -5.616882 -3.242905 3.242910
												CHANNELS 3 Xrotation Yrotation Zrotation
												End Site
												{
													OFFSET 1.254608 7.132141 0.375429
												}
											}
										}
									}
								}
								JOINT RightHandIndex1
								{
									OFFSET -21.310577 -0.490082 6.209344
									CHANNELS 3 Xrotation Yrotation Zrotation
									JOINT RightHandIndex2
									{
										OFFSET -7.536453 0.000000 0.000000
										CHANNELS 3 Xrotation Yrotation Zrotation
										JOINT RightHandIndex3
										{
											OFFSET -7.512344 0.000000 0.000000
											CHANNELS 3 Xrotation Yrotation Zrotation
											JOINT RightHandIndex4
											{
												OFFSET -10.212402 0.000000 0.000001
												CHANNELS 3 Xrotation Yrotation Zrotation
												End Site
												{
													OFFSET 5.180801 8.690506 1.388433
												}
											}
										}
									}
								}
								JOINT RightHandMiddle1
								{
									OFFSET -23.373947 0.000000 0.000001
									CHANNELS 3 Xrotation Yrotation Zrotation
									JOINT RightHandMiddle2
									{
										OFFSET -6.996567 0.000000 0.000000
										CHANNELS 3 Xrotation Yrotation Zrotation
										JOINT RightHandMiddle3
										{
											OFFSET -7.015945 0.000000 0.000000
											CHANNELS 3 Xrotation Yrotation Zrotation
											JOINT RightHandMiddle4
											{
												OFFSET -7.721573 0.000000 0.000000
												CHANNELS 3 Xrotation Yrotation Zrotation
												End Site
												{
													OFFSET 4.651108 6.158463 0.251582
												}
											}
										}
									}
								}
								JOINT RightHandRing1
								{
									OFFSET -22.726120 -0.094986 -6.500475
									CHANNELS 3 Xrotation Yrotation Zrotation
									JOINT RightHandRing2
									{
										OFFSET -6.408615 0.000000 0.000000
										CHANNELS 3 Xrotation Yrotation Zrotation
										JOINT RightHandRing3
										{
											OFFSET -6.150223 0.000000 0.000000
											CHANNELS 3 Xrotation Yrotation Zrotation
											JOINT RightHandRing4
											{
												OFFSET -6.145386 0.000000 0.000000
												CHANNELS 3 Xrotation Yrotation Zrotation
												End Site
												{
													OFFSET 3.671402 4.923981 -0.202372
												}
											}
										}
									}
								}
								JOINT RightHandPinky1
								{
									OFFSET -18.920792 -0.453171 -11.426712
									CHANNELS 3 Xrotation Yrotation Zrotation
									JOINT RightHandPinky2
									{
										OFFSET -4.919586 0.000000 0.000000
										CHANNELS 3 Xrotation Yrotation Zrotation
										JOINT RightHandPinky3
										{
											OFFSET -5.233047 0.000000 0.000000
											CHANNELS 3 Xrotation Yrotation Zrotation
											JOINT RightHandPinky4
											{
												OFFSET -5.571716 0.000000 0.000000
												CHANNELS 3 Xrotation Yrotation Zrotation
												End Site
												{
													OFFSET 3.459808 4.342407 -0.466164
												}
											}
										}
									}
								}
							}
						}
					}
				}
			}
		}
	}
	JOINT LeftUpLeg
	{
		OFFSET 19.899099 -7.885101 -3.429500
		CHANNELS 3 Xrotation Yrotation Zrotation
		JOINT LeftLeg
		{
			OFFSET 1.745560 -36.997807 10.304700
			CHANNELS 3 Xrotation Yrotation Zrotation
			JOINT LeftFoot
			{
				OFFSET -1.745558 -29.803308 -13.615400
				CHANNELS 3 Xrotation Yrotation Zrotation
				JOINT LeftToeBase
				{
					OFFSET 1.181900 -18.539904 15.226099
					CHANNELS 3 Xrotation Yrotation Zrotation
					JOINT LeftToe_End
					{
						OFFSET -0.863701 1.402801 16.534700
						CHANNELS 3 Xrotation Yrotation Zrotation
						End Site
						{
							OFFSET 0.000000 16.616566 0.000000
						}
					}
				}
			}
		}
	}
	JOINT RightUpLeg
	{
		OFFSET -19.899099 -7.885101 -3.429500
		CHANNELS 3 Xrotation Yrotation Zrotation
		JOINT RightLeg
		{
			OFFSET -1.745560 -36.997807 10.304700
			CHANNELS 3 Xrotation Yrotation Zrotation
			JOINT RightFoot
			{
				OFFSET 1.745558 -29.803308 -13.615400
				CHANNELS 3 Xrotation Yrotation Zrotation
				JOINT RightToeBase
				{
					OFFSET -1.181900 -18.539904 15.226099
					CHANNELS 3 Xrotation Yrotation Zrotation
					JOINT RightToe_End
					{
						OFFSET 0.863701 1.402801 16.534700
						CHANNELS 3 Xrotation Yrotation Zrotation
						End Site
						{
							OFFSET 0.000000 16.616566 0.000000
						}
					}
				}
			}
		}
	}
}
MOTION
Frames: 4
Frame Time: 0.033333
-2.547581 61.028290 4.423395 118.217269 -48.032636 110.158070 24.580195 -12.179855 -1.580840 16.229074 -8.775715 7.700794 -23.167991 -7.663430 5.179015 -6.540577 36.549182 -42.928938 -23.945205 17.380274 8.462674 -0.000002 0.000002 -0.000001 7.069869 -29.882586 2.034935 -11.907982 -54.739188 -35.021617 259.141748 -161.058128 226.207710 -37.158080 7.419982 20.211687 17.551629 -5.699218 -12.932319 10.850500 26.127705 8.644781 20.926904 51.115906 0.218815 0.000000 -0.000000 0.000001 10.030080 13.637015 -84.750244 0.877088 0.062344 -64.595510 1.141310 1.253136 -55.016354 0.000003 0.000002 -0.000007 8.574351 2.179139 -75.149006 -0.207655 1.009271 -57.855056 0.443131 1.742151 -53.581239 -0.000001 0.000001 0.000003 7.504734 1.174489 -63.778503 1.807807 1.475672 -64.567957 0.130405 -0.912260 -43.272534 -0.000001 0.000000 0.000008 13.980895 1.201526 -55.004384 0.370832 1.161729 -65.441893 1.983955 2.147991 -57.665115 -0.000004 0.000004 0.000002 6.849547 -8.343972 11.027569 11.127596 14.126587 56.892109 34.178721 24.526829 -6.610754 28.127547 0.841136 10.644232 27.594007 -5.555026 -15.809492 -5.380134 -38.824885 10.177445 -8.057388 -11.002727 1.445248 0.000001 -0.000002 -0.000007 0.801370 -5.807738 33.450746 -0.549278 -4.889758 60.781225 -0.424953 -7.266393 32.323071 -0.000001 -0.000006 -0.000000 -9.652819 -12.449695 30.060455 6.841865 -3.671653 70.259103 0.283488 -2.089527 46.441520 -0.000002 -0.000001 -0.000002 -4.869737 -5.853452 29.930148 8.304691 2.383853 71.568867 5.138152 -1.601690 53.311874 -0.000003 -0.000003 -0.000002 -11.808728 -10.357624 24.619408 10.760202 12.712341 74.483684 9.705788 2.326801 54.251134 -0.000000 -0.000001 0.000004 -47.729133 18.903119 38.095903 87.061471 -11.945743 -9.308688 -45.902853 -5.338434 4.397082 -35.427761 12.378016 -13.409002 0.000001 -0.000001 -0.000000 -96.617609 -7.966996 18.181516 65.245553 10.489717 -3.894920 -3.975684 -0.151612 -1.068608 -1.432586 -0.023623 0.091476 -0.000000 0.000001 -0.000000 
-2.917908 62.578300 3.558205 114.545148 -51.134440 106.209496 26.436730 -11.228243 1.668129 16.158508 -8.871870 7.795246 -22.392999 -7.044506 5.273873 -5.893337 37.050983 -44.311665 -23.299695 17.483534 9.440337 0.000002 0.000002 0.000001 6.942728 -29.548078 2.171616 -14.912992 -49.193864 -38.343873 262.261670 -157.417719 232.640177 -31.361968 9.656937 20.134971 17.551628 -5.699212 -12.932315 10.850497 26.127709 8.644781 20.926909 51.115899 0.218818 -0.000000 -0.000004 -0.000001 10.030086 13.637018 -84.750244 0.877091 0.062347 -64.595510 1.141314 1.253127 -55.016354 -0.000003 0.000002 -0.000002 8.574345 2.179139 -75.149013 -0.207653 1.009273 -57.855056 0.443132 1.742153 -53.581236 0.000001 0.000001 -0.000000 7.504741 1.174492 -63.778510 1.807806 1.475672 -64.567964 0.130400 -0.912258 -43.272534 -0.000000 0.000001 0.000004 13.980894 1.201527 -55.004388 0.370830 1.161724 -65.441893 1.983952 2.147994 -57.665115 -0.000003 0.000001 -0.000001 6.870115 -7.192855 10.005790 8.439450 15.750917 56.626018 37.911481 26.377719 -10.206107 30.107088 2.014271 11.466723 26.592614 -5.344010 -15.768706 -5.085664 -37.866726 10.011566 -7.868441 -10.545716 1.502339 -0.000001 0.000000 0.000004 0.598092 -5.429060 32.691894 -0.649883 -4.732150 59.364494 -0.492526 -7.053691 31.680518 -0.000004 -0.000006 0.000002 -9.750896 -11.705291 29.085517 6.515714 -3.793341 68.328946 0.225021 -2.035250 45.039627 -0.000001 -0.000001 -0.000001 -4.981405 -5.484787 28.836526 8.140709 2.021923 69.591930 4.945595 -1.695038 51.714320 0.000002 -0.000001 -0.000007 -11.746157 -9.770956 23.779882 10.908033 11.935243 72.379747 9.489209 1.988839 52.621160 -0.000003 0.000001 0.000008 -47.359907 23.338179 42.214346 85.493860 -6.942819 -12.499672 -45.962515 -2.764464 -0.591777 -27.520407 12.972245 -18.021603 0.000000 0.000001 -0.000000 -92.387311 -7.908195 17.162937 64.774891 8.770344 -4.271784 -5.885204 -0.016835 -1.669159 -1.430749 -0.017558 0.115285 -0.000000 0.000000 -0.000000 
-3.269810 64.579582 2.739527 108.592638 -54.364901 99.947155 27.934932 -10.384685 4.996286 15.834595 -9.143351 7.566883 -21.656080 -6.579558 5.016459 -4.831975 36.347005 -43.431168 -23.333748 18.034332 8.587544 0.000001 0.000002 -0.000003 6.856191 -29.250729 2.225226 -16.141947 -43.481691 -40.018273 264.597021 -156.239457 239.013126 -27.178349 9.746911 17.910952 17.551624 -5.699214 -12.932314 10.850501 26.127707 8.644782 20.926909 51.115899 0.218820 0.000002 0.000002 -0.000001 10.030088 13.637022 -84.750244 0.877085 0.062347 -64.595503 1.141308 1.253134 -55.016354 0.000000 -0.000005 -0.000001 8.574346 2.179139 -75.149013 -0.207653 1.009272 -57.855063 0.443130 1.742153 -53.581239 0.000001 -0.000001 0.000003 7.504738 1.174491 -63.778503 1.807805 1.475675 -64.567957 0.130400 -0.912259 -43.272534 0.000000 0.000001 0.000004 13.980896 1.201527 -55.004381 0.370830 1.161726 -65.441893 1.983951 2.147994 -57.665115 -0.000000 0.000003 0.000002 6.923571 -5.954660 9.196396 6.269907 16.754329 56.266470 40.550837 27.551950 -11.824895 31.476927 3.511244 11.917684 25.611789 -5.142600 -15.736822 -4.802641 -36.959762 9.829411 -7.691467 -10.094558 1.557807 0.000002 -0.000002 0.000002 0.417675 -5.072929 31.946075 -0.740452 -4.578546 57.989802 -0.555384 -6.846425 31.041195 -0.000002 -0.000001 -0.000002 -9.797326 -11.008012 28.183299 6.201388 -3.892506 66.478334 0.171535 -1.981423 43.692638 0.000001 0.000003 -0.000008 -5.051500 -5.152701 27.818257 7.967974 1.688167 67.696068 4.758545 -1.774720 50.182626 0.000000 -0.000005 -0.000004 -11.644978 -9.243851 23.000025 11.006769 11.194641 70.370114 9.267750 1.677675 51.057997 -0.000003 0.000001 -0.000001 -46.347621 26.082160 42.474781 83.835456 0.250467 -14.312474 -47.046804 0.612815 -5.120270 -18.872798 9.388389 -20.798797 0.000000 0.000000 0.000000 -87.498104 -7.476469 15.189340 63.497134 5.307413 -4.632814 -8.172922 1.514068 -1.249215 -1.421557 -0.015392 0.138511 -0.000000 0.000000 0.000000 
-3.513657 66.670395 1.970406 100.920635 -56.837768 91.456977 27.286421 -9.876479 7.604681 15.472742 -9.432058 7.144514 -20.730799 -6.213400 4.577987 -5.592695 35.677080 -40.273667 -23.492449 18.753444 7.567168 -0.000002 0.000003 -0.000002 6.862801 -28.819727 2.170878 -16.544352 -38.620232 -38.356608 264.592540 -155.677961 242.252002 -26.565264 6.523825 14.648001 17.551626 -5.699216 -12.932323 10.850498 26.127707 8.644782 20.926912 51.115903 0.218820 0.000000 0.000001 -0.000002 10.030091 13.637016 -84.750244 0.877089 0.062346 -64.595503 1.141306 1.253127 -55.016358 -0.000000 -0.000000 -0.000004 8.574353 2.179139 -75.149006 -0.207654 1.009273 -57.855063 0.443132 1.742156 -53.581239 0.000001 -0.000002 0.000005 7.504741 1.174491 -63.778503 1.807803 1.475671 -64.567957 0.130401 -0.912257 -43.272534 0.000004 0.000001 0.000009 13.980894 1.201525 -55.004388 0.370827 1.161735 -65.441893 1.983953 2.147994 -57.665108 0.000002 -0.000000 0.000001 6.956522 -4.489282 9.094800 5.037757 16.007250 56.153717 41.532891 27.475969 -10.712908 31.355872 5.743380 11.219817 24.805072 -4.980879 -15.712934 -4.572535 -36.232429 9.666514 -7.550847 -9.723605 1.602232 0.000000 -0.000001 0.000001 0.281915 -4.788423 31.330112 -0.809422 -4.452844 56.864306 -0.604383 -6.676343 30.510281 0.000001 -0.000003 0.000006 -9.804372 -10.453590 27.469448 5.946722 -3.961023 64.977987 0.130024 -1.936648 42.599606 0.000001 0.000004 -0.000003 -5.087249 -4.897161 27.009669 7.818347 1.427516 66.160518 4.605407 -1.832236 48.940471 -0.000003 0.000003 -0.000001 -11.539804 -8.839230 22.384714 11.058334 10.599887 68.747391 9.079048 1.435050 49.789692 -0.000001 -0.000001 0.000004 -45.659941 27.322147 40.595154 82.125826 8.445471 -15.250446 -48.669234 3.433669 -7.789041 -11.111199 4.205644 -22.077378 -0.000000 0.000000 0.000000 -82.495223 -7.351845 13.496039 61.492371 2.184568 -4.962601 -10.320373 2.020089 -0.436048 -1.411492 -0.014914 0.163742 0.000000 0.000000 -0.000000 
